# xmcd
#
# Track frame offsets: 
#        150
#        14250
#        26517
#        38597
#        54082
#        67237
#        80442
#        93257
#        106015
#        120180
#        134430
#        149670
#        164630
#        177942
#        191685
#        205425
#        220330
#        233770
#        249422
#        263542
#        277260
#        290872
#        305542
#        319610
#
# Disc length: 4453 seconds
#
# Revision: 2
# Processed by: cddbd v1.5.2PL0 Copyright (c) Steve Scherf et al.
# Submitted via: ExactAudioCopy v0.95a5
#
DISCID=5f116318
DTITLE=Lonnie Johnson - Complete Recorded Works in Chronological Order
DTITLE=, Volume 4 (1928-1929)
DYEAR=1900
DGENRE=Blues
TTITLE0=I'm So Tired of Living All Alone
TTITLE1=Way Down That Lonesome Road
TTITLE2=Crowing Rooster Blues
TTITLE3=Broken Levee Blues
TTITLE4=Wrong Woman Blues
TTITLE5=New Black Snake Blues Pt. 1 (with Victoria Spivey)
TTITLE6=New Black Snake Blues Pt. 2 (with Victoria Spivey)
TTITLE7=Toothache Blues Pt. 1 (with Victoria Spivey)
TTITLE8=Furniture Man Blues Pt. 1 (with Victoria Spivey)
TTITLE9=Furniture Man Blues Pt. 2 (with Victoria Spivey)
TTITLE10=Toothache Blues Pt. 2 (with Victoria Spivey)
TTITLE11=When You Fall for Someone Who's Not Your Own
TTITLE12=Careless Love
TTITLE13=Two Tone Stomp
TTITLE14=Have to Change Keys to Play These Blues
TTITLE15=It Feels So Good Pt. 1 (with Spencer Williams)
TTITLE16=It Feels So Good Pt. 2 (with Spencer Williams)
TTITLE17=I Wanna a Little Some o' That What You Got
TTITLE18=Death Is on Your Track (with Spencer Williams)
TTITLE19=Jet Black Blues (with Blind Willie Dunn's Gin Bottle Four)
TTITLE20=Blue Blood Blues (with Blind Willie Dunn's Gin Bottle Four)
TTITLE21=Guitar Blues
TTITLE22=A Handful of Riffs
TTITLE23=Blue Guitars
EXTD=Check out http://hob.com/splash/spotlights/lonniejohnson.html\nBl
EXTD=ind Willie Dunn=Eddie Lang
EXTT0=
EXTT1=
EXTT2=
EXTT3=
EXTT4=
EXTT5=
EXTT6=
EXTT7=
EXTT8=
EXTT9=
EXTT10=
EXTT11=
EXTT12=
EXTT13=
EXTT14=
EXTT15=
EXTT16=
EXTT17=
EXTT18=
EXTT19=
EXTT20=
EXTT21=
EXTT22=
EXTT23=
PLAYORDER=
